<svg width="33" height="32" viewBox="0 0 33 32" fill="none" xmlns="http://www.w3.org/2000/svg">
<rect x="0.5" width="32" height="32" rx="3.6" fill="#84889C"/>
<g clip-path="url(#clip0)">
<path d="M12.9401 13.1197C11.1937 14.4301 11.2001 16.3171 12.904 17.6108C13.033 17.7088 13.149 18.0364 13.0845 18.1448C12.5647 19.0102 12.0643 19.9002 11.4258 20.6754C11.0067 21.1848 10.3398 21.1268 9.73619 20.8405C9.07581 20.527 8.40124 20.4703 7.69958 20.7283C6.37753 21.2158 5.76358 21.0068 4.95616 19.8525C3.9501 18.413 3.41225 16.8433 3.51157 15.066C3.63797 12.7998 5.56366 11.243 7.69829 12.2065C8.27613 12.467 8.7482 12.3548 9.27057 12.1549C10.7668 11.5809 11.9934 11.8995 12.9401 13.1197Z" fill="white"/>
<path d="M16.5618 20.8018C15.9801 20.8018 15.5158 20.8018 15.0166 20.8018C15.0166 17.9023 15.0166 15.0312 15.0166 12.0569C15.6099 12.0569 16.2239 12.0311 16.8314 12.0775C16.9616 12.0878 17.1113 12.3458 17.1848 12.5186C17.9225 14.2534 18.6448 15.9934 19.3762 17.7308C19.4484 17.9023 19.5554 18.0584 19.6767 18.2789C20.4364 16.4912 21.169 14.7668 21.9003 13.041C22.3195 12.0543 22.3182 12.053 23.3991 12.0543C23.6545 12.0543 23.9111 12.0543 24.2142 12.0543C24.2142 14.9706 24.2142 17.8559 24.2142 20.7863C23.7435 20.7863 23.2649 20.7863 22.74 20.7863C22.74 18.9599 22.74 17.1426 22.74 15.324C22.6961 15.3098 22.6536 15.2956 22.6097 15.2827C22.326 15.9302 22.0383 16.5764 21.7584 17.2264C21.3147 18.257 20.8594 19.2837 20.4428 20.3246C20.2932 20.6999 20.092 20.8418 19.6844 20.8444C19.2743 20.8456 19.0124 20.7605 18.8448 20.3478C18.2166 18.8 17.5614 17.2638 16.9139 15.7238C16.8327 15.5316 16.7424 15.3446 16.5592 15.164C16.5618 17.0252 16.5618 18.8877 16.5618 20.8018Z" fill="white"/>
<path d="M29.4999 20.8005C28.9479 20.8005 28.441 20.8005 27.8683 20.8005C27.8683 18.4685 27.8683 16.1636 27.8683 13.7749C27.0751 14.3076 26.3657 14.7822 25.548 15.3304C25.548 14.7719 25.5286 14.3114 25.5596 13.8561C25.5699 13.7143 25.686 13.5401 25.8059 13.4511C26.3838 13.0216 26.9332 12.5044 27.582 12.2348C28.1405 12.0027 28.8202 12.0607 29.5012 11.9859C29.4999 14.9744 29.4999 17.861 29.4999 20.8005Z" fill="white"/>
<path d="M10.688 9C10.9098 10.5155 10.1347 11.4984 8.40243 11.9008C7.98841 10.6484 9.06282 9.28634 10.688 9Z" fill="white"/>
</g>
<defs>
<clipPath id="clip0">
<rect width="26" height="12.0559" fill="white" transform="translate(3.5 9)"/>
</clipPath>
</defs>
</svg>
