<svg width="33" height="32" viewBox="0 0 33 32" fill="none" xmlns="http://www.w3.org/2000/svg">
<rect x="0.75" width="32" height="32" rx="3.6" fill="white"/>
<g clip-path="url(#clip0)">
<path d="M26.7033 20.225C26.7074 20.3012 26.7123 20.3519 26.7125 20.4025C26.713 21.0003 26.7078 21.598 26.7161 22.1955C26.7182 22.3459 26.6629 22.4246 26.5335 22.4912C25.6664 22.9387 24.7711 23.3194 23.8527 23.648C22.316 24.198 20.7411 24.607 19.1389 24.9092C18.4676 25.0357 17.7909 25.1404 17.1126 25.2223C16.486 25.298 15.8545 25.3386 15.2242 25.3786C14.7096 25.4114 14.1933 25.4364 13.6779 25.4354C13.1218 25.4343 12.565 25.4093 12.0096 25.3765C10.5287 25.2892 9.07222 25.0563 7.65906 24.5931C6.56059 24.233 5.526 23.7439 4.61081 23.0266C3.57048 22.2108 2.80602 21.1982 2.42832 19.9169C2.26366 19.3587 2.17838 18.7875 2.14409 18.206C2.08717 17.2424 2.23146 16.3115 2.55799 15.4061C2.93952 14.3485 3.54315 13.4271 4.28533 12.5911C4.59341 12.244 4.91802 11.9135 5.28772 11.5986C5.31766 11.6949 5.29538 11.781 5.30669 11.8628C5.34724 12.1578 5.23811 12.3808 5.04717 12.6123C4.148 13.7026 3.56891 14.9499 3.33063 16.3453C3.15048 17.3997 3.22585 18.4364 3.62809 19.4374C3.98595 20.3282 4.57269 21.0401 5.33993 21.6089C6.09429 22.1682 6.93864 22.5438 7.83033 22.8207C8.58974 23.0564 9.36551 23.2189 10.1547 23.3129C10.6144 23.3676 11.0754 23.4113 11.5367 23.4503C12.2362 23.5093 12.9378 23.5324 13.6393 23.5112C14.2645 23.4922 14.8895 23.4558 15.5139 23.4163C15.9471 23.389 16.3812 23.3585 16.8113 23.302C17.425 23.2212 18.0382 23.1302 18.6467 23.0172C20.2097 22.7269 21.74 22.3111 23.2385 21.7792C24.3986 21.3673 25.5299 20.8902 26.5995 20.2757C26.6239 20.2619 26.6502 20.2509 26.7033 20.225Z" fill="#1378C6"/>
<path d="M27.3668 18.9298C27.3604 18.8506 27.3527 18.8 27.3527 18.7495C27.3517 18.3492 27.357 17.9487 27.3494 17.5483C27.3468 17.4141 27.3992 17.3402 27.5092 17.2702C28.2881 16.7754 28.9436 16.1517 29.4496 15.3766C29.9141 14.6649 30.2135 13.8892 30.2786 13.0406C30.3712 11.8344 30.0354 10.7455 29.2964 9.78682C28.7476 9.07476 28.042 8.55294 27.2484 8.14634C26.3439 7.68283 25.3813 7.39007 24.3863 7.19704C23.7541 7.07433 23.1169 6.99653 22.4746 6.94657C21.7448 6.88966 21.0146 6.86929 20.2844 6.89644C19.3289 6.93213 18.3775 7.01776 17.4296 7.1544C15.7444 7.39738 14.095 7.78883 12.4782 8.31727C11.2421 8.72125 10.04 9.21174 8.87471 9.79048C8.79726 9.82894 8.71876 9.86515 8.61519 9.91458C8.5903 9.74418 8.58769 9.59101 8.61554 9.4408C8.62268 9.40216 8.68551 9.36735 8.72937 9.34298C9.17026 9.09808 9.60644 8.84361 10.0557 8.61508C11.8363 7.70894 13.7089 7.05605 15.6518 6.59846C16.4472 6.41118 17.2491 6.25539 18.0591 6.1534C18.7366 6.06811 19.4182 6.00249 20.0999 5.96872C20.8176 5.93304 21.5378 5.92765 22.2562 5.94331C22.7472 5.9541 23.2373 6.02007 23.7273 6.06776C24.4491 6.13808 25.1594 6.27611 25.8607 6.45852C26.9553 6.74327 28.0009 7.14743 28.9559 7.76394C29.853 8.3432 30.5943 9.07162 31.1029 10.0215C31.3764 10.532 31.5628 11.0731 31.6486 11.6445C31.7018 11.9989 31.7506 12.3583 31.7499 12.7155C31.748 13.5759 31.5861 14.4105 31.2312 15.1984C30.4885 16.8474 29.2929 18.0521 27.6536 18.8156C27.5704 18.8539 27.4832 18.8837 27.3668 18.9298Z" fill="#1378C6"/>
<path d="M22.7367 17.2706C23.0317 17.5548 23.3179 17.8305 23.6124 18.114C23.5735 18.1614 23.5487 18.1992 23.5168 18.2298C22.988 18.7363 22.3571 19.005 21.6257 19.0381C21.2187 19.0566 20.8155 19.0456 20.4179 18.9375C19.5269 18.6952 18.9417 18.129 18.6726 17.2542C18.4194 16.4316 18.4032 15.5937 18.6669 14.7709C19.0014 13.727 19.7189 13.1044 20.8102 12.9308C21.2099 12.8673 21.6078 12.8781 21.9985 12.9883C22.6234 13.1646 23.0818 13.552 23.3953 14.1144C23.6272 14.5304 23.7575 14.9789 23.7882 15.4541C23.8049 15.7142 23.8127 15.9749 23.8183 16.2355C23.8221 16.4166 23.8157 16.4201 23.6338 16.4201C22.6418 16.4206 21.6499 16.4203 20.6579 16.4203C20.4898 16.4203 20.3215 16.4194 20.1533 16.4208C20.0968 16.4213 20.0402 16.4274 19.9669 16.432C19.9636 16.5099 19.9518 16.5782 19.9593 16.6443C20.0336 17.2968 20.459 17.7144 21.064 17.8114C21.3033 17.8496 21.5385 17.8336 21.7731 17.7962C22.0782 17.7475 22.3442 17.6105 22.5766 17.4075C22.6195 17.3696 22.6638 17.3327 22.7367 17.2706ZM22.3464 15.4261C22.3508 15.1436 22.2908 14.9003 22.1759 14.6698C22.0486 14.4148 21.856 14.2251 21.5794 14.1463C21.138 14.0202 20.727 14.0956 20.3718 14.3912C20.0978 14.6192 19.989 14.9358 19.9581 15.2804C19.9457 15.4172 19.9673 15.432 20.0989 15.4398C20.1163 15.4409 20.1337 15.4404 20.1511 15.4404C20.8174 15.4404 21.4835 15.4407 22.1498 15.4398C22.2062 15.4398 22.2626 15.4322 22.3464 15.4261Z" fill="#1378C6"/>
<path d="M10.8062 18.9422C10.3165 18.9422 9.85442 18.9422 9.36968 18.9422C9.36411 18.8757 9.35401 18.8096 9.35384 18.7434C9.35262 18.0124 9.35314 17.2812 9.35314 16.5501C9.35314 15.4884 9.35314 14.4265 9.35314 13.3647C9.35314 13.3125 9.35279 13.2603 9.35332 13.2081C9.35558 13.0051 9.35854 13.0006 9.55644 13.0004C10.154 12.9999 10.7515 13.0003 11.349 13.001C11.7784 13.0015 12.2078 12.9961 12.6369 13.006C12.9486 13.0131 13.2449 13.0944 13.5093 13.266C13.939 13.5449 14.1432 13.9607 14.2102 14.4538C14.225 14.5626 14.2246 14.6738 14.2246 14.784C14.2255 16.0837 14.2253 17.3833 14.2251 18.6832C14.2251 18.9453 14.2246 18.9453 13.9656 18.9462C13.6001 18.9476 13.2348 18.9492 12.8693 18.95C12.8468 18.95 12.8242 18.9445 12.7829 18.9391C12.78 18.8705 12.7746 18.8031 12.7746 18.7358C12.774 17.4766 12.7742 16.2175 12.7742 14.9584C12.7742 14.9004 12.7751 14.8423 12.7735 14.7843C12.7631 14.3983 12.557 14.1845 12.1692 14.164C12.036 14.1569 11.9024 14.1614 11.769 14.1612C11.5137 14.161 11.2585 14.16 11.0032 14.1616C10.821 14.1628 10.81 14.1753 10.8063 14.3629C10.8055 14.4094 10.806 14.4557 10.806 14.5022C10.806 15.9006 10.806 17.2989 10.806 18.6973C10.8062 18.772 10.8062 18.8466 10.8062 18.9422Z" fill="#1378C6"/>
<path d="M18.0424 17.7501C18.0424 17.9315 18.0426 18.0872 18.0424 18.2432C18.0422 18.4347 18.041 18.6261 18.0422 18.8176C18.0428 18.8949 18.0118 18.9412 17.9309 18.9392C17.5142 18.9297 17.0952 18.9796 16.6816 18.8954C15.9985 18.7561 15.5066 18.1946 15.454 17.4963C15.4465 17.3981 15.4439 17.2993 15.4439 17.2008C15.4434 15.3441 15.4434 13.4876 15.4436 11.631C15.4436 11.3574 15.4441 11.3574 15.7245 11.3572C16.0552 11.3572 16.3859 11.356 16.7165 11.3579C16.8849 11.3589 16.8924 11.3673 16.893 11.5368C16.8942 11.9197 16.8933 12.3027 16.8933 12.6856C16.8933 12.732 16.8923 12.7785 16.8936 12.8248C16.898 12.9778 16.9131 12.997 17.0637 12.9989C17.3131 13.0022 17.5625 12.9999 17.812 13.0003C17.8525 13.0003 17.8933 13.0015 17.9338 13.0013C18.0045 13.0011 18.0414 13.0339 18.0414 13.1066C18.0412 13.4199 18.0403 13.7332 18.0422 14.0465C18.0428 14.1421 17.9895 14.1621 17.9082 14.1616C17.6531 14.1598 17.3977 14.1611 17.1425 14.1612C17.0961 14.1612 17.0498 14.1621 17.0033 14.1637C16.933 14.1661 16.8978 14.204 16.8956 14.2733C16.8942 14.3196 16.8933 14.3661 16.8933 14.4126C16.8931 15.306 16.8928 16.1996 16.8938 17.093C16.894 17.168 16.8954 17.2448 16.9107 17.3176C16.9666 17.5837 17.137 17.7268 17.4101 17.7376C17.5549 17.7433 17.7001 17.7384 17.845 17.74C17.9016 17.7405 17.958 17.7456 18.0424 17.7501Z" fill="#1378C6"/>
<path d="M24.7787 10.5064C24.8268 10.5019 24.855 10.497 24.8833 10.497C25.2776 10.4965 25.6718 10.4954 26.0661 10.4972C26.2217 10.4979 26.2304 10.5092 26.2354 10.6674C26.2366 10.708 26.2359 10.7485 26.2359 10.7892C26.2359 13.3985 26.2359 16.0078 26.2359 18.6171C26.2359 18.6966 26.2359 18.7763 26.2359 18.8667C26.1747 18.8667 26.1359 18.871 26.0983 18.866C25.8783 18.8362 25.6673 18.7746 25.473 18.6662C25.0551 18.4329 24.843 18.0639 24.7887 17.5983C24.7726 17.4606 24.7733 17.3205 24.7732 17.1815C24.7721 15.007 24.7723 12.8327 24.7725 10.6582C24.7723 10.6124 24.7761 10.5668 24.7787 10.5064Z" fill="#1378C6"/>
<path d="M7.94288 19.0134C7.80764 18.9927 7.71104 18.9833 7.61688 18.9627C6.92135 18.8103 6.5104 18.3286 6.46967 17.6208C6.46497 17.5396 6.46306 17.4584 6.46306 17.3773C6.46271 16.002 6.46271 14.6268 6.46288 13.2516C6.46288 13.0008 6.46341 13.0004 6.71004 13.0003C7.05241 12.9999 7.39461 12.9997 7.73697 13.0004C7.94149 13.001 7.94254 13.0018 7.94271 13.2016C7.94306 14.3158 7.94288 15.4299 7.94288 16.5439C7.94288 17.2866 7.94288 18.0293 7.94288 18.7721C7.94288 18.8398 7.94288 18.9077 7.94288 19.0134Z" fill="#1378C6"/>
<path d="M7.18776 12.1041C7.00256 12.1041 6.81719 12.1056 6.63199 12.1037C6.48196 12.1021 6.4656 12.0901 6.46438 11.9502C6.46142 11.5854 6.46142 11.2206 6.46438 10.8559C6.46542 10.7217 6.48196 10.7066 6.61702 10.7057C6.99908 10.7034 7.38131 10.7036 7.76336 10.7055C7.90696 10.7062 7.9228 10.7214 7.92384 10.8669C7.92645 11.2258 7.92662 11.5849 7.92367 11.9438C7.92245 12.0872 7.90522 12.1016 7.76092 12.1034C7.56981 12.1058 7.37887 12.1041 7.18776 12.1041Z" fill="#1378C6"/>
<path d="M27.9308 11.6548C27.5972 11.6546 27.3514 11.4052 27.3537 11.0693C27.3557 10.7445 27.6048 10.4963 27.9275 10.497C28.2497 10.4977 28.5247 10.7715 28.5167 11.0839C28.5087 11.3989 28.2459 11.655 27.9308 11.6548ZM27.9185 11.6102C28.2083 11.6142 28.469 11.362 28.4702 11.0766C28.4714 10.7993 28.2199 10.5455 27.9383 10.5396C27.6438 10.5335 27.3946 10.7783 27.3939 11.0738C27.3932 11.3634 27.6307 11.6062 27.9185 11.6102Z" fill="#1378C6"/>
<path d="M28.0458 11.1401C28.0844 11.22 28.1236 11.3011 28.1781 11.4141C28.1203 11.3914 28.0835 11.3885 28.0679 11.3688C28.0251 11.3147 27.9967 11.2484 27.9513 11.197C27.9251 11.1676 27.8775 11.1478 27.8378 11.1446C27.8242 11.1436 27.799 11.2047 27.7908 11.2402C27.7798 11.2877 27.7802 11.3378 27.7448 11.3939C27.7299 11.3695 27.7027 11.3455 27.702 11.3208C27.6978 11.1646 27.6999 11.0083 27.6992 10.852C27.6987 10.7657 27.7481 10.7182 27.8266 10.7194C27.9114 10.7208 28.0005 10.7292 28.0788 10.7586C28.17 10.7927 28.1988 10.9203 28.1467 11.0125C28.1218 11.0566 28.0835 11.0931 28.0458 11.1401ZM27.8198 11.0489C27.9119 11.0539 28.0083 11.0809 28.0595 10.9727C28.0861 10.9163 28.0771 10.8475 28.0179 10.8247C27.9596 10.8023 27.8668 10.7829 27.8289 10.8127C27.7567 10.8695 27.7775 10.9627 27.8198 11.0489Z" fill="#1378C6"/>
</g>
<defs>
<clipPath id="clip0">
<rect width="30" height="21" fill="white" transform="translate(1.75 5)"/>
</clipPath>
</defs>
</svg>
